<svg xmlns="http://www.w3.org/2000/svg" viewBox="0 0 400 300">
  <rect width="400" height="300" rx="12" fill="#312e81"/>
  <circle cx="200" cy="120" r="50" fill="none" stroke="#818cf8" stroke-width="3" opacity="0.7"/>
  <circle cx="200" cy="120" r="72" fill="none" stroke="#6366f1" stroke-width="2" opacity="0.4"/>
  <circle cx="200" cy="120" r="92" fill="none" stroke="#4f46e5" stroke-width="1" opacity="0.2"/>
  <circle cx="200" cy="42" r="5" fill="#c7d2fe"/><circle cx="272" cy="78" r="4" fill="#c7d2fe"/>
  <circle cx="292" cy="120" r="6" fill="#c7d2fe"/><circle cx="272" cy="170" r="5" fill="#c7d2fe"/>
  <circle cx="200" cy="212" r="4" fill="#c7d2fe"/><circle cx="128" cy="170" r="6" fill="#c7d2fe"/>
  <circle cx="108" cy="120" r="5" fill="#c7d2fe"/><circle cx="128" cy="68" r="4" fill="#c7d2fe"/>
  <line x1="200" y1="47" x2="200" y2="70" stroke="#818cf8" stroke-width="1" opacity="0.5"/>
  <line x1="265" y1="83" x2="240" y2="100" stroke="#818cf8" stroke-width="1" opacity="0.5"/>
  <line x1="284" y1="120" x2="252" y2="120" stroke="#818cf8" stroke-width="1" opacity="0.5"/>
  <line x1="265" y1="163" x2="240" y2="142" stroke="#818cf8" stroke-width="1" opacity="0.5"/>
  <line x1="200" y1="207" x2="200" y2="170" stroke="#818cf8" stroke-width="1" opacity="0.5"/>
  <line x1="135" y1="163" x2="165" y2="142" stroke="#818cf8" stroke-width="1" opacity="0.5"/>
  <line x1="116" y1="120" x2="150" y2="120" stroke="#818cf8" stroke-width="1" opacity="0.5"/>
  <line x1="135" y1="73" x2="165" y2="100" stroke="#818cf8" stroke-width="1" opacity="0.5"/>
  <path d="M182 110 Q190 100 200 105 Q210 100 218 110 Q222 125 212 135 Q205 145 200 145 Q195 145 188 135 Q178 125 182 110Z" fill="#818cf8" opacity="0.9"/>
  <text x="200" y="285" text-anchor="middle" font-family="system-ui" font-size="14" font-weight="600" fill="white">Persistent Memory</text>
</svg>
